# This file uses centimeters as units for non-parametric coordinates.

mtllib Circle_out_UV_VFXmodel.mtl
v 0.000000 0.000000 2.253319
v 0.697658 0.000000 2.142821
v 1.327024 0.000000 1.822143
v 1.826492 0.000000 1.322676
v 2.147170 0.000000 0.693310
v 2.257669 0.000000 -0.004348
v 2.147172 0.000000 -0.702006
v 1.826496 0.000000 -1.331372
v 1.327029 0.000000 -1.830841
v 0.697663 0.000000 -2.151520
v 0.000006 0.000000 -2.262020
v -0.697652 0.000000 -2.151524
v -1.327019 0.000000 -1.830848
v -1.826489 0.000000 -1.331381
v -2.147169 0.000000 -0.702017
v -2.257669 0.000000 -0.004359
v -2.147174 0.000000 0.693299
v -1.826499 0.000000 1.322666
v -1.327033 0.000000 1.822136
v -0.697669 0.000000 2.142817
v -0.000012 0.000000 2.253319
v 0.000000 0.120306 1.121795
v 0.347998 0.120306 1.066678
v 0.661931 0.120306 0.906721
v 0.911071 0.120306 0.657582
v 1.071028 0.120306 0.343649
v 1.126146 0.120306 -0.004349
v 1.071029 0.120306 -0.352347
v 0.911073 0.120306 -0.666281
v 0.661934 0.120306 -0.915420
v 0.348001 0.120306 -1.075378
v 0.000003 0.120306 -1.130497
v -0.347995 0.120306 -1.075380
v -0.661929 0.120306 -0.915424
v -0.911069 0.120306 -0.666285
v -1.071027 0.120306 -0.352353
v -1.126146 0.120306 -0.004355
v -1.071030 0.120306 0.343643
v -0.911074 0.120306 0.657578
v -0.661936 0.120306 0.906718
v -0.348004 0.120306 1.066676
v -0.000006 0.120306 1.121795
v 0.000000 0.000000 -0.009728
v -0.001662 0.000000 -0.009465
v -0.003161 0.000000 -0.008701
v -0.004350 0.000000 -0.007511
v -0.005115 0.000000 -0.006012
v -0.005378 0.000000 -0.004351
v -0.005115 0.000000 -0.002689
v -0.004350 0.000000 -0.001190
v -0.003161 0.000000 0.000000
v -0.001662 0.000000 0.000764
v 0.000000 0.000000 0.001027
v 0.001662 0.000000 0.000764
v 0.003161 0.000000 0.000000
v 0.004351 0.000000 -0.001190
v 0.005114 0.000000 -0.002689
v 0.005378 0.000000 -0.004350
v 0.005114 0.000000 -0.006012
v 0.004351 0.000000 -0.007511
v 0.003161 0.000000 -0.008701
v 0.001662 0.000000 -0.009465
v 0.000000 0.000000 -0.009728
vt 0.000000 0.000000
vt 0.050000 0.000000
vt 0.100000 0.000000
vt 0.150000 0.000000
vt 0.200000 0.000000
vt 0.250000 0.000000
vt 0.300000 0.000000
vt 0.350000 0.000000
vt 0.400000 0.000000
vt 0.450000 0.000000
vt 0.500000 0.000000
vt 0.550000 0.000000
vt 0.600000 0.000000
vt 0.650000 0.000000
vt 0.700000 0.000000
vt 0.750000 0.000000
vt 0.800000 0.000000
vt 0.850000 0.000000
vt 0.900000 0.000000
vt 0.950000 0.000000
vt 1.000000 0.000000
vt 0.000000 0.500000
vt 0.050000 0.500000
vt 0.100000 0.500000
vt 0.150000 0.500000
vt 0.200000 0.500000
vt 0.250000 0.500000
vt 0.300000 0.500000
vt 0.350000 0.500000
vt 0.400000 0.500000
vt 0.450000 0.500000
vt 0.500000 0.500000
vt 0.550000 0.500000
vt 0.600000 0.500000
vt 0.650000 0.500000
vt 0.700000 0.500000
vt 0.750000 0.500000
vt 0.800000 0.500000
vt 0.850000 0.500000
vt 0.900000 0.500000
vt 0.950000 0.500000
vt 1.000000 0.500000
vt 0.000000 1.000000
vt 0.050000 1.000000
vt 0.100000 1.000000
vt 0.150000 1.000000
vt 0.200000 1.000000
vt 0.250000 1.000000
vt 0.300000 1.000000
vt 0.350000 1.000000
vt 0.400000 1.000000
vt 0.450000 1.000000
vt 0.500000 1.000000
vt 0.550000 1.000000
vt 0.600000 1.000000
vt 0.650000 1.000000
vt 0.700000 1.000000
vt 0.750000 1.000000
vt 0.800000 1.000000
vt 0.850000 1.000000
vt 0.900000 1.000000
vt 0.950000 1.000000
vt 1.000000 1.000000
vn 0.016743 0.994256 0.105711
vn 0.032671 0.994395 0.100552
vn 0.018797 0.998148 0.057853
vn 0.009634 0.998102 0.060827
vn 0.062144 0.994395 0.085534
vn 0.035755 0.998148 0.049212
vn 0.085534 0.994395 0.062144
vn 0.049212 0.998148 0.035755
vn 0.100552 0.994395 0.032671
vn 0.057853 0.998148 0.018798
vn 0.105726 0.994395 0.000000
vn 0.060830 0.998148 0.000000
vn 0.100552 0.994395 -0.032671
vn 0.057853 0.998148 -0.018797
vn 0.085535 0.994395 -0.062144
vn 0.049212 0.998148 -0.035755
vn 0.062145 0.994395 -0.085534
vn 0.035755 0.998148 -0.049212
vn 0.032671 0.994395 -0.100552
vn 0.018798 0.998148 -0.057853
vn 0.000000 0.994395 -0.105726
vn 0.000000 0.998148 -0.060830
vn -0.032671 0.994395 -0.100552
vn -0.018797 0.998148 -0.057853
vn -0.062144 0.994395 -0.085535
vn -0.035755 0.998148 -0.049212
vn -0.085534 0.994395 -0.062145
vn -0.049212 0.998148 -0.035755
vn -0.100552 0.994395 -0.032672
vn -0.057853 0.998148 -0.018798
vn -0.105726 0.994395 -0.000000
vn -0.060830 0.998148 -0.000000
vn -0.100552 0.994395 0.032671
vn -0.057853 0.998148 0.018797
vn -0.085535 0.994395 0.062144
vn -0.049213 0.998148 0.035755
vn -0.062145 0.994395 0.085534
vn -0.035755 0.998148 0.049212
vn -0.032672 0.994395 0.100552
vn -0.018798 0.998148 0.057853
vn -0.016744 0.994256 0.105711
vn -0.009634 0.998102 0.060827
vn -0.032672 0.994395 -0.100552
vn -0.016743 0.994256 -0.105711
vn -0.062144 0.994395 -0.085535
vn -0.085534 0.994395 -0.062144
vn -0.100552 0.994395 -0.032670
vn -0.105726 0.994395 -0.000000
vn -0.100552 0.994395 0.032670
vn -0.085535 0.994395 0.062144
vn -0.062144 0.994395 0.085535
vn -0.032672 0.994395 0.100552
vn -0.000000 0.994395 0.105726
vn 0.032671 0.994395 0.100552
vn 0.062144 0.994395 0.085535
vn 0.085534 0.994395 0.062145
vn 0.100551 0.994395 0.032672
vn 0.105726 0.994395 0.000000
vn 0.100552 0.994395 -0.032671
vn 0.085535 0.994395 -0.062144
vn 0.062145 0.994395 -0.085534
vn 0.032672 0.994395 -0.100551
vn 0.016744 0.994256 -0.105711
s 1
usemtl initialShadingGroup
f 1/1/1 2/2/2 23/23/3 22/22/4
f 2/2/2 3/3/5 24/24/6 23/23/3
f 3/3/5 4/4/7 25/25/8 24/24/6
f 4/4/7 5/5/9 26/26/10 25/25/8
f 5/5/9 6/6/11 27/27/12 26/26/10
f 6/6/11 7/7/13 28/28/14 27/27/12
f 7/7/13 8/8/15 29/29/16 28/28/14
f 8/8/15 9/9/17 30/30/18 29/29/16
f 9/9/17 10/10/19 31/31/20 30/30/18
f 10/10/19 11/11/21 32/32/22 31/31/20
f 11/11/21 12/12/23 33/33/24 32/32/22
f 12/12/23 13/13/25 34/34/26 33/33/24
f 13/13/25 14/14/27 35/35/28 34/34/26
f 14/14/27 15/15/29 36/36/30 35/35/28
f 15/15/29 16/16/31 37/37/32 36/36/30
f 16/16/31 17/17/33 38/38/34 37/37/32
f 17/17/33 18/18/35 39/39/36 38/38/34
f 18/18/35 19/19/37 40/40/38 39/39/36
f 19/19/37 20/20/39 41/41/40 40/40/38
f 20/20/39 21/21/41 42/42/42 41/41/40
f 22/22/4 23/23/3 44/44/43 43/43/44
f 23/23/3 24/24/6 45/45/45 44/44/43
f 24/24/6 25/25/8 46/46/46 45/45/45
f 25/25/8 26/26/10 47/47/47 46/46/46
f 26/26/10 27/27/12 48/48/48 47/47/47
f 27/27/12 28/28/14 49/49/49 48/48/48
f 28/28/14 29/29/16 50/50/50 49/49/49
f 29/29/16 30/30/18 51/51/51 50/50/50
f 30/30/18 31/31/20 52/52/52 51/51/51
f 31/31/20 32/32/22 53/53/53 52/52/52
f 32/32/22 33/33/24 54/54/54 53/53/53
f 33/33/24 34/34/26 55/55/55 54/54/54
f 34/34/26 35/35/28 56/56/56 55/55/55
f 35/35/28 36/36/30 57/57/57 56/56/56
f 36/36/30 37/37/32 58/58/58 57/57/57
f 37/37/32 38/38/34 59/59/59 58/58/58
f 38/38/34 39/39/36 60/60/60 59/59/59
f 39/39/36 40/40/38 61/61/61 60/60/60
f 40/40/38 41/41/40 62/62/62 61/61/61
f 41/41/40 42/42/42 63/63/63 62/62/62
