# This file uses centimeters as units for non-parametric coordinates.

mtllib skul_batul_vfxmodel.mtl
v 0.935725 0.000000 0.094331
v 0.831186 0.081637 0.081192
v 0.403650 0.196821 -1.246148
v 0.566146 0.308735 -0.375684
v -0.007452 0.000000 -1.230594
v 0.040557 0.191459 -1.180327
v 0.428918 0.000000 -1.346956
v 0.676242 0.331735 0.563706
v 0.459966 0.581190 0.397154
v 0.566598 0.532788 0.076540
v 0.720615 0.257510 -0.489645
v 0.787580 0.245116 0.193129
v 0.355997 0.474576 -0.273717
v 0.023705 0.371321 -0.916353
v 0.689621 0.165363 -0.173882
v 0.397679 0.508931 -0.041822
v 0.540432 0.536798 -0.019440
v 0.337200 0.628295 0.114500
v 0.236678 0.000000 0.845174
v -0.262272 0.411564 0.729263
v -0.424697 0.666793 0.387672
v -0.360385 0.526479 -0.388703
v -0.546178 0.000000 0.726188
v -0.097001 0.707566 0.126196
v -0.578471 0.351120 -0.258620
v -0.790369 0.000000 -0.107697
v -0.667335 0.352491 0.524817
v -0.661663 0.000000 -0.306415
v -0.346917 0.000000 -0.866533
v -0.255469 0.517737 -0.489850
v -0.391166 0.646863 -0.104077
v -0.861959 -0.000000 0.364814
v -0.715250 0.412424 0.123054
v 0.081992 0.665035 0.534606
v -0.024821 -0.000000 0.870008
v 0.759063 0.000000 0.606389
v -0.027725 -0.000000 0.869860
v 0.831186 -0.081637 0.081192
v 0.403650 -0.196821 -1.246148
v 0.566146 -0.308735 -0.375684
v 0.040557 -0.191459 -1.180327
v 0.676242 -0.331735 0.563706
v 0.459966 -0.581190 0.397154
v 0.566598 -0.532788 0.076540
v 0.720615 -0.257510 -0.489645
v 0.787580 -0.245116 0.193129
v 0.355992 -0.474574 -0.273717
v 0.023705 -0.371321 -0.916353
v 0.689621 -0.165363 -0.173882
v 0.397679 -0.508931 -0.041822
v 0.540432 -0.536798 -0.019440
v 0.337200 -0.628295 0.114500
v -0.262272 -0.411564 0.729263
v -0.424697 -0.666793 0.387672
v -0.360385 -0.526479 -0.388703
v -0.097001 -0.707566 0.126196
v -0.578471 -0.351120 -0.258620
v -0.667335 -0.352491 0.524817
v -0.255469 -0.517737 -0.489850
v -0.391166 -0.646863 -0.104077
v -0.715250 -0.412424 0.123054
v 0.081992 -0.665035 0.534606
v 0.759063 -0.000000 0.606389
v 0.771714 -0.300293 0.384202
v 0.509384 -0.569899 0.285054
v 0.411251 -0.593389 0.055299
v 0.431325 -0.495432 -0.539440
v 0.613002 -0.254545 -0.621117
v 0.920742 -0.039104 0.092000
v 0.771714 0.300293 0.384202
v 0.509384 0.569899 0.285054
v 0.411251 0.593389 0.055299
v 0.431324 0.495459 -0.539400
v 0.613001 0.254573 -0.621076
v 0.920742 0.039104 0.092000
v 0.313175 -0.139186 -0.838499
v 0.313175 0.139186 -0.838499
v 0.320860 0.000000 -0.829105
v 0.337819 -0.096482 -0.705809
v 0.337819 0.096482 -0.705809
v 0.333712 0.000000 -0.631275
v 0.594045 -0.177975 -0.608460
v 0.790147 -0.070044 -0.245439
v 0.799706 0.000000 -0.187811
v 0.790147 0.070044 -0.245439
v 0.594045 0.177975 -0.608460
v 0.498637 0.159982 -0.995157
v 0.525575 0.000000 -1.144247
v 0.498637 -0.159982 -0.995157
v 0.650319 -0.068512 -0.328214
v 0.659037 0.000000 -0.274720
v 0.650318 0.068512 -0.328214
v 0.503444 0.163953 -0.680549
v 0.439576 0.150040 -0.967049
v 0.443479 0.000000 -1.118346
v 0.439576 -0.150040 -0.967049
v 0.503444 -0.163953 -0.680549
v 0.779924 0.192439 -0.444628
v 0.717899 0.193796 -0.523979
v 0.925528 0.077541 -0.222330
v 0.880926 0.079794 -0.281379
v 0.936046 0.000000 -0.176020
v 0.907441 0.000000 -0.217145
v 0.925528 -0.077541 -0.222330
v 0.880926 -0.079794 -0.281379
v 0.779924 -0.192439 -0.444628
v 0.717899 -0.193796 -0.523979
v 0.594054 0.000000 -1.150884
v 0.589989 0.000000 -1.107929
v 0.676576 -0.200089 -0.747665
v 0.662242 -0.183098 -0.740348
v 0.676576 0.200089 -0.747665
v 0.662294 0.183101 -0.740347
v 0.460792 -0.217308 -1.112771
v 0.612675 -0.165985 -1.081101
v 0.606411 -0.159760 -1.048900
v 0.508051 -0.099078 -1.118022
v 0.434929 -0.091722 -1.089175
v 0.460792 0.217308 -1.112771
v 0.612675 0.165985 -1.081101
v 0.606411 0.159760 -1.048900
v 0.508051 0.099078 -1.118022
v 0.434929 0.091722 -1.089175
v 0.892757 0.074890 0.087777
v 0.897093 0.072248 0.110500
v 0.845926 0.153193 -0.165212
v 0.850227 0.151357 -0.166329
v 0.724603 0.294603 -0.340510
v 0.718693 0.296416 -0.336731
v 0.459611 0.499260 -0.230478
v 0.479831 0.507942 -0.228801
v 0.589331 0.542910 0.102265
v 0.550800 0.551037 -0.023012
v 0.555407 0.547469 -0.018313
v 0.856911 0.246764 0.178780
v 0.860044 0.248095 0.204559
v 0.589331 -0.542910 0.102265
v 0.856911 -0.246764 0.178780
v 0.860044 -0.248095 0.204559
v 0.892757 -0.074890 0.087777
v 0.897093 -0.072248 0.110500
v 0.556113 -0.548102 -0.016015
v 0.550429 -0.551149 -0.022804
v 0.845926 -0.153193 -0.165212
v 0.850227 -0.151357 -0.166328
v 0.724603 -0.294603 -0.340510
v 0.718693 -0.296416 -0.336731
v 0.459603 -0.499258 -0.230479
v 0.479819 -0.507942 -0.228803
v 0.492900 0.530807 -0.021578
v 0.428416 0.497412 -0.244646
v 0.656282 0.301456 -0.352668
v 0.781977 0.158172 -0.168759
v 0.527222 0.523432 0.088011
v 0.492900 -0.530807 -0.021578
v 0.428409 -0.497410 -0.244647
v 0.656282 -0.301456 -0.352668
v 0.781977 -0.158172 -0.168759
v 0.527222 -0.523432 0.088011
vt 0.500000 0.951799
vt 0.500000 0.852244
vt 0.658125 0.834449
vt 0.696176 0.903473
vt 0.817834 0.761056
vt 0.668019 0.818235
vt 0.816996 0.822316
vt 0.696586 0.650730
vt 0.500000 0.638754
vt 0.676994 0.217375
vt 0.837269 0.652040
vt 0.799484 0.647164
vt 0.750952 0.437366
vt 0.500000 0.238147
vt 0.667365 0.491601
vt 0.808334 0.556033
vt 0.500000 0.902191
vt 0.500000 0.962092
vt 0.500000 0.751526
vt 0.500000 0.554524
vt 0.753959 0.631337
vt 0.616837 0.679946
vt 0.578822 0.526930
vt 0.538913 0.633277
vt 0.777031 0.765009
vt 0.603582 0.135484
vt 0.593817 0.079876
vt 0.500000 0.471674
vt 0.726212 0.485307
vt 0.742587 0.581989
vt 0.647162 0.442794
vt 0.591261 0.107318
vt 0.500000 0.037847
vt 0.500000 0.086361
vt 0.746785 0.395195
vt 0.500000 0.962153
vt 0.341875 0.834449
vt 0.303824 0.903473
vt 0.331981 0.818235
vt 0.182166 0.761056
vt 0.183004 0.822316
vt 0.303414 0.650730
vt 0.323006 0.217375
vt 0.200516 0.647164
vt 0.162731 0.652040
vt 0.249048 0.437366
vt 0.332635 0.491601
vt 0.191666 0.556033
vt 0.500000 0.852244
vt 0.246041 0.631337
vt 0.421178 0.526930
vt 0.383163 0.679946
vt 0.461087 0.633277
vt 0.222969 0.765009
vt 0.257413 0.581989
vt 0.273789 0.485306
vt 0.352838 0.442794
vt 0.408739 0.107318
vt 0.406183 0.079876
vt 0.253215 0.395195
vt 0.228351 0.718272
vt 0.356862 0.759609
vt 0.217155 0.622481
vt 0.263847 0.374520
vt 0.378668 0.340467
vt 0.396418 0.135484
vt 0.481360 0.637783
vt 0.433655 0.249835
vt 0.454011 0.305157
vt 0.467343 0.462585
vt 0.421850 0.315688
vt 0.545989 0.305157
vt 0.566344 0.249835
vt 0.578150 0.315688
vt 0.532657 0.462585
vt 0.500000 0.253751
vt 0.500000 0.336232
vt 0.466612 0.497096
vt 0.415166 0.345744
vt 0.500000 0.484888
vt 0.500000 0.521123
vt 0.584833 0.345744
vt 0.533387 0.497096
vt 0.576257 0.184520
vt 0.571518 0.196239
vt 0.500000 0.122361
vt 0.547226 0.133295
vt 0.543720 0.145322
vt 0.500000 0.133160
vt 0.423743 0.184520
vt 0.452773 0.133295
vt 0.456280 0.145322
vt 0.428482 0.196239
vt 0.591728 0.414049
vt 0.592375 0.380966
vt 0.587277 0.290757
vt 0.595375 0.287706
vt 0.536961 0.506731
vt 0.538034 0.482112
vt 0.500000 0.508893
vt 0.500000 0.526039
vt 0.463039 0.506731
vt 0.461965 0.482112
vt 0.408272 0.414049
vt 0.407625 0.380966
vt 0.404625 0.287706
vt 0.412724 0.290756
vt 0.420881 0.148688
vt 0.423849 0.162114
vt 0.500000 0.137503
vt 0.500000 0.119594
vt 0.579119 0.148688
vt 0.576151 0.162114
vt 0.643138 0.759609
vt 0.771648 0.718272
vt 0.782845 0.622481
vt 0.736166 0.374537
vt 0.621345 0.340484
vt 0.518639 0.637783
vt 0.535697 0.636022
vt 0.534438 0.645496
vt 0.572146 0.530079
vt 0.573021 0.530545
vt 0.617623 0.673963
vt 0.618257 0.684711
vt 0.640426 0.457459
vt 0.641290 0.459034
vt 0.742116 0.504033
vt 0.737978 0.503334
vt 0.762658 0.589831
vt 0.760957 0.591791
vt 0.758784 0.642063
vt 0.241216 0.642063
vt 0.237289 0.589918
vt 0.238741 0.592748
vt 0.382377 0.673963
vt 0.381742 0.684711
vt 0.464303 0.636022
vt 0.465562 0.645496
vt 0.426979 0.530545
vt 0.427854 0.530079
vt 0.257884 0.504032
vt 0.262023 0.503333
vt 0.358710 0.459034
vt 0.359574 0.457459
vt 0.755870 0.591321
vt 0.749499 0.636120
vt 0.575394 0.529066
vt 0.622745 0.395281
vt 0.737097 0.497427
vt 0.643692 0.452390
vt 0.753015 0.590429
vt 0.244129 0.591321
vt 0.377255 0.395281
vt 0.262904 0.497426
vt 0.246985 0.590429
vt 0.356307 0.452390
vt 0.424605 0.529066
vt 0.250500 0.636120
vn 0.236872 -0.000000 0.971541
vn 0.744628 0.000000 0.667479
vn 0.500519 0.515562 0.695469
vn -0.147664 0.477885 0.865922
vn -0.398650 0.867651 0.297087
vn -0.709990 0.449435 0.542146
vn 0.156108 0.767508 0.621741
vn -0.836151 0.539675 -0.097997
vn 0.959976 -0.000000 0.280082
vn -0.124945 0.872685 -0.472028
vn 0.072519 0.982540 -0.171337
vn 0.151591 0.981040 -0.120751
vn -0.635311 0.561866 -0.529799
vn -0.769000 -0.000000 -0.639248
vn -0.780883 0.436969 -0.446407
vn -0.221220 0.937709 -0.267886
vn -0.495332 0.000000 0.868704
vn -0.086785 0.000000 0.996227
vn -0.975853 -0.000000 0.218427
vn -0.952157 0.000000 -0.305610
vn 0.631662 0.569784 -0.525690
vn 0.816016 0.479967 -0.322101
vn 0.629582 0.772054 -0.086944
vn 0.632468 0.768521 -0.096745
vn 0.411546 0.861391 0.297717
vn 0.428391 0.800267 -0.419587
vn 0.299823 0.644944 -0.702961
vn -0.863338 -0.000000 -0.504626
vn 0.695586 0.703612 -0.145224
vn 0.580458 0.670719 -0.461740
vn 0.551134 0.800120 0.236770
vn -0.433403 0.600815 -0.671701
vn 0.358490 -0.000000 -0.933533
vn -0.538350 -0.000000 -0.842721
vn -0.281339 0.831732 -0.478613
vn 0.092962 0.000000 0.995670
vn 0.500519 -0.515562 0.695469
vn -0.147664 -0.477885 0.865922
vn -0.709990 -0.449435 0.542146
vn -0.398650 -0.867651 0.297087
vn 0.156108 -0.767508 0.621741
vn -0.836151 -0.539675 -0.097997
vn -0.124955 -0.872685 -0.472024
vn 0.151602 -0.981037 -0.120758
vn 0.072519 -0.982540 -0.171337
vn -0.635311 -0.561866 -0.529799
vn -0.780883 -0.436969 -0.446407
vn -0.221220 -0.937709 -0.267886
vn 0.000000 0.000000 0.000000
vn 0.000000 1.000000 0.000000
vn 0.000000 1.000000 0.000000
vn 0.631661 -0.569784 -0.525690
vn 0.629580 -0.772055 -0.086945
vn 0.816016 -0.479967 -0.322101
vn 0.632468 -0.768521 -0.096745
vn 0.411546 -0.861391 0.297717
vn 0.580454 -0.670718 -0.461746
vn 0.695580 -0.703616 -0.145235
vn 0.551125 -0.800123 0.236778
vn -0.433403 -0.600815 -0.671701
vn 0.299823 -0.644944 -0.702961
vn -0.281339 -0.831732 -0.478613
vn -0.000000 -1.000000 0.000000
vn -0.000000 -0.000000 0.000000
vn -0.000000 -1.000000 0.000000
vn 0.586207 -0.798715 0.135705
vn 0.779881 -0.569902 0.258839
vn 0.041232 -0.983499 -0.176152
vn 0.234178 -0.926261 -0.295299
vn 0.466405 -0.821343 -0.328424
vn 0.428392 -0.800269 -0.419582
vn 0.942837 -0.136913 0.303832
vn 0.269607 0.943395 -0.193177
vn 0.656190 0.633594 -0.409846
vn 0.519559 0.665661 -0.535681
vn 0.311782 0.916411 -0.250965
vn 0.656190 -0.633594 -0.409846
vn 0.269606 -0.943395 -0.193177
vn 0.311782 -0.916411 -0.250964
vn 0.519560 -0.665661 -0.535681
vn 0.979154 0.000000 0.203121
vn 0.811419 0.000001 -0.584464
vn 0.943948 0.181612 0.275643
vn 0.223620 0.791344 -0.569007
vn 0.225170 0.949862 -0.216937
vn 0.671140 0.000002 -0.741331
vn 0.120748 0.621479 -0.774069
vn 0.225148 -0.949876 -0.216899
vn 0.223620 -0.791344 -0.569008
vn 0.141256 -0.976899 0.160357
vn 0.544242 -0.788034 0.287755
vn -0.190856 0.000000 0.981618
vn -0.018215 -0.700174 0.713740
vn 0.742362 -0.359783 0.565203
vn 0.728886 0.000000 0.684635
vn 0.141260 0.976897 0.160367
vn -0.018216 0.700164 0.713749
vn 0.742363 0.359783 0.565203
vn 0.544242 0.788034 0.287755
vn 0.269089 -0.960055 -0.076723
vn 0.221757 -0.921272 -0.319504
vn 0.172909 -0.984798 0.016627
vn 0.492812 -0.867090 -0.072744
vn 0.777325 -0.177632 -0.603501
vn 0.957714 0.019192 -0.287080
vn 0.376087 -0.687273 -0.621462
vn 0.804944 -0.000000 -0.593351
vn 0.998392 0.000000 -0.056681
vn 0.957714 -0.019193 -0.287080
vn 0.376087 0.687273 -0.621462
vn 0.777325 0.177632 -0.603501
vn 0.221755 0.921270 -0.319508
vn 0.268938 0.960099 -0.076696
vn 0.492307 0.867387 -0.072621
vn 0.172926 0.984795 0.016629
vn 0.955470 0.282114 0.086540
vn 0.341703 0.929349 0.139817
vn 0.992345 0.000000 0.123498
vn 0.992345 0.000000 0.123498
vn 0.955543 -0.281872 0.086517
vn 0.341749 -0.929331 0.139826
vn 0.538760 0.727762 -0.424382
vn 0.715649 -0.000000 -0.698460
vn 0.538746 -0.727771 -0.424384
vn 0.421701 -0.887685 -0.184889
vn -0.209367 0.646823 -0.733339
vn -0.464244 0.000000 0.885707
vn -0.445430 -0.281801 0.849812
vn -0.445430 0.281801 0.849812
vn 0.779881 0.569902 0.258839
vn 0.586185 0.798733 0.135693
vn 0.041230 0.983504 -0.176128
vn 0.234148 0.926270 -0.295295
vn 0.466408 0.821337 -0.328434
vn 0.421743 0.887659 -0.184915
vn 0.943948 -0.181612 0.275643
vn 0.120748 -0.621479 -0.774070
vn -0.209367 -0.646823 -0.733339
vn 0.942837 0.136912 0.303832
vn 0.026941 0.957202 0.288164
vn 0.724819 0.688684 0.018759
vn 0.721176 0.692733 0.005083
vn 0.055156 0.916937 0.395202
vn 0.951728 0.273583 -0.139166
vn 0.951728 0.273583 -0.139166
vn 0.804508 0.456234 -0.380286
vn 0.788047 0.469199 -0.398540
vn 0.703288 0.693319 -0.157148
vn 0.232762 -0.140494 0.962332
vn 0.510518 0.840174 -0.182974
vn 0.155509 -0.303971 0.939903
vn 0.607417 -0.791337 -0.069495
vn 0.607417 -0.791337 -0.069495
vn 0.607417 -0.791337 -0.069495
vn 0.607417 -0.791337 -0.069495
vn 0.806857 0.341745 -0.481864
vn 0.725641 0.497748 -0.475070
vn 0.660996 -0.729364 -0.176386
vn 0.743565 -0.626794 -0.232895
vn 0.802898 -0.350436 -0.482235
vn 0.724794 -0.499047 -0.475000
vn 0.744772 0.623986 -0.236552
vn 0.670554 0.718537 -0.184557
vn 0.804508 -0.456234 -0.380286
vn 0.788047 -0.469199 -0.398540
vn 0.951728 -0.273581 -0.139166
vn 0.951728 -0.273581 -0.139166
vn 0.724818 -0.688685 0.018759
vn 0.026941 -0.957202 0.288164
vn 0.055157 -0.916937 0.395202
vn 0.721175 -0.692734 0.005084
vn 0.611434 0.788151 -0.070473
vn 0.611434 0.788151 -0.070473
vn 0.611434 0.788151 -0.070473
vn 0.611434 0.788151 -0.070473
vn 0.232819 0.140412 0.962331
vn 0.703278 -0.693328 -0.157151
vn 0.155572 0.303893 0.939919
vn 0.510695 -0.840073 -0.182943
vn 0.582345 -0.806076 -0.105426
vn -0.158314 -0.472903 -0.866775
vn -0.167124 -0.477888 -0.862376
vn -0.158053 -0.472755 -0.866904
vn -0.158053 -0.472755 -0.866904
vn -0.030964 0.512107 -0.858364
vn -0.030964 0.512107 -0.858364
vn -0.030964 0.512107 -0.858364
vn -0.030964 0.512107 -0.858364
vn 0.011249 0.880127 0.474605
vn 0.645913 0.726781 -0.233637
vn -0.193884 -0.652940 0.732174
vn -0.219363 -0.663860 0.714961
vn -0.246688 -0.674889 0.695464
vn -0.246688 -0.674889 0.695464
vn 0.115903 -0.993038 0.021045
vn 0.176696 -0.982665 0.056101
vn 0.208807 -0.973112 0.097230
vn 0.069769 -0.987961 0.138077
vn 0.162339 -0.981436 -0.102123
vn 0.210647 -0.967675 -0.138686
vn -0.038641 0.764354 0.643638
vn -0.032530 0.787252 0.615773
vn 0.582453 -0.809000 -0.079165
vn 0.564328 -0.818971 0.104023
vn 0.687163 -0.707650 0.164436
vn 0.928493 -0.073640 0.363974
vn 0.928493 -0.073640 0.363974
vn 0.596899 0.794814 -0.109463
vn 0.645892 -0.726795 -0.233650
vn 0.338201 -0.932929 -0.123545
vn 0.594889 0.799228 -0.085683
vn 0.687163 0.707650 0.164436
vn 0.564120 0.819127 0.103924
vn 0.338092 0.932955 -0.123649
vn 0.928493 0.073640 0.363974
vn 0.928493 0.073640 0.363974
vn 0.656327 -0.731436 -0.185030
vn 0.726031 -0.687423 0.018130
vn 0.726031 -0.687423 0.018130
vn 0.656348 0.731416 -0.185035
vn 0.726031 0.687423 0.018130
vn 0.726031 0.687423 0.018130
vn 0.234117 -0.968572 0.084010
vn 0.231823 -0.968573 0.090136
vn -0.176468 -0.645129 0.743417
vn -0.176468 -0.645129 0.743417
vn 0.144079 0.464751 0.873641
vn 0.338043 -0.911186 -0.235515
vn 0.115902 0.993038 0.021047
vn 0.069764 0.987960 0.138086
vn 0.208806 0.973112 0.097232
vn 0.176692 0.982666 0.056104
vn -0.219364 0.663868 0.714954
vn -0.193885 0.652946 0.732169
vn -0.246690 0.674896 0.695456
vn -0.246690 0.674896 0.695456
vn -0.038642 -0.764354 0.643638
vn 0.011249 -0.880127 0.474605
vn -0.032529 -0.787252 0.615773
vn -0.030964 -0.512107 -0.858364
vn -0.030964 -0.512107 -0.858364
vn -0.030964 -0.512107 -0.858364
vn -0.030964 -0.512107 -0.858364
vn -0.167124 0.477888 -0.862376
vn -0.158314 0.472903 -0.866775
vn -0.158052 0.472754 -0.866904
vn -0.158052 0.472754 -0.866904
vn 0.162339 0.981436 -0.102123
vn 0.210646 0.967675 -0.138686
vn 0.231822 0.968573 0.090138
vn 0.234116 0.968572 0.084012
vn -0.176468 0.645134 0.743412
vn -0.176468 0.645134 0.743412
vn 0.144079 -0.464751 0.873641
vn 0.338042 0.911186 -0.235517
s 1
usemtl Icosphere_001SG
f 19/1/1 36/2/2 8/3/3
f 20/4/4 21/5/5 27/6/6
f 19/1/1 8/3/3 34/7/7
f 21/5/5 33/8/8 27/6/6
f 8/3/3 36/2/2 1/9/9
f 14/10/10 24/11/11 18/12/12
f 22/13/13 29/14/14 25/15/15
f 22/13/13 25/15/15 31/16/16
f 23/17/17 20/4/4 27/6/6
f 23/17/17 37/18/18 20/4/4
f 23/17/17 27/6/6 32/19/19
f 24/11/11 21/5/5 34/7/7
f 21/5/5 20/4/4 34/7/7
f 20/4/4 19/1/1 34/7/7
f 25/15/15 26/20/20 33/8/8
f 26/20/20 32/19/19 33/8/8
f 27/6/6 33/8/8 32/19/19
f 10/21/21 12/22/22 15/23/23
f 12/22/22 2/24/24 15/23/23
f 24/11/11 34/7/7 18/12/12
f 34/7/7 8/3/3 9/25/25 18/12/12
f 14/10/10 119/26/26 3/27/27
f 25/15/15 33/8/8 31/16/16
f 21/5/5 31/16/16 33/8/8
f 31/16/16 21/5/5 24/11/11
f 28/28/28 26/20/20 25/15/15
f 15/23/23 13/29/29 16/30/30
f 16/30/30 10/21/21 15/23/23
f 4/31/31 13/29/29 15/23/23
f 6/32/32 3/27/27 7/33/33
f 5/34/34 6/32/32 7/33/33
f 3/27/27 6/32/32 14/10/10
f 14/10/10 6/32/32 29/14/14
f 22/13/13 31/16/16 30/35/35
f 22/13/13 30/35/35 14/10/10 29/14/14
f 30/35/35 31/16/16 24/11/11 14/10/10
f 29/14/14 28/28/28 25/15/15
f 6/32/32 5/34/34 29/14/14
f 37/18/18 35/36/36 19/1/1 20/4/4
f 19/1/1 42/37/37 36/2/2
f 53/38/38 58/39/39 54/40/40
f 19/1/1 62/41/41 42/37/37
f 54/40/40 58/39/39 61/42/42
f 42/37/37 1/9/9 36/2/2
f 48/43/43 52/44/44 56/45/45
f 55/46/46 57/47/47 29/14/14
f 55/46/46 60/48/48 57/47/47
f 23/17/17 58/39/39 53/38/38
f 23/17/17 53/38/38 37/18/18
f 23/17/17 32/19/19 58/39/39
s off
f 42/37/49 36/2/50 63/49/51
s 1
f 56/45/45 62/41/41 54/40/40
f 54/40/40 62/41/41 53/38/38
f 53/38/38 62/41/41 19/1/1
f 57/47/47 61/42/42 26/20/20
f 26/20/20 61/42/42 32/19/19
f 58/39/39 32/19/19 61/42/42
f 44/50/52 49/51/53 46/52/54
f 46/52/54 49/51/53 38/53/55
f 56/45/45 52/44/44 62/41/41
f 62/41/41 52/44/44 43/54/56 42/37/37
f 57/47/47 60/48/48 61/42/42
f 54/40/40 61/42/42 60/48/48
f 60/48/48 56/45/45 54/40/40
f 28/28/28 57/47/47 26/20/20
f 49/51/53 50/55/57 47/56/58
f 50/55/57 49/51/53 44/50/52
f 40/57/59 49/51/53 47/56/58
f 41/58/60 7/33/33 39/59/61
f 5/34/34 7/33/33 41/58/60
f 39/59/61 48/43/43 41/58/60
f 48/43/43 29/14/14 41/58/60
f 55/46/46 59/60/62 60/48/48
f 55/46/46 29/14/14 48/43/43 59/60/62
f 59/60/62 48/43/43 56/45/45 60/48/48
f 29/14/14 57/47/47 28/28/28
f 41/58/60 29/14/14 5/34/34
f 37/18/18 53/38/38 19/1/1 35/36/36
s off
f 36/2/63 42/37/64 63/49/65
s 1
f 42/37/37 43/54/56 65/61/66 64/62/67
f 66/63/68 65/61/66 43/54/56 52/44/44
f 67/64/69 66/63/68 52/44/44 48/43/43
f 68/65/70 67/64/69 48/43/43 114/66/71
f 64/62/67 69/67/72 1/9/9 42/37/37
f 76/68/73 79/69/74 90/70/75 97/71/76
f 80/72/77 77/73/78 93/74/79 92/75/80
f 78/76/81 81/77/82 79/69/74 76/68/83
f 83/78/84 82/79/85 97/71/76 90/70/75
f 91/80/86 84/81/87 83/78/84 90/70/75
f 86/82/88 85/83/89 92/75/80 93/74/79
f 87/84/90 86/82/88 93/74/79 94/85/91
f 88/86/92 122/87/93 123/88/94 95/89/95
f 89/90/96 117/91/97 118/92/98 96/93/99
f 82/79/85 89/90/96 96/93/99 97/71/76
f 81/77/82 91/80/86 90/70/75 79/69/74
f 94/85/91 93/74/79 77/73/78
f 95/89/95 123/88/94 78/76/81
f 96/93/99 118/92/98 78/76/81 76/68/83
f 97/71/76 96/93/99 76/68/73
f 98/94/100 99/95/101 113/96/102 112/97/103
f 99/95/101 98/94/104 100/98/105 101/99/106
f 103/100/107 102/101/108 104/102/109 105/103/110
f 105/103/110 104/102/109 106/104/111 107/105/112
f 107/105/112 106/104/113 110/106/114 111/107/115
f 115/108/116 116/109/117 111/107/115 110/106/114
f 109/110/118 108/111/119 120/112/120 121/113/121
f 7/33/33 3/27/27 119/26/26 120/112/122 108/111/123
f 114/66/71 115/108/124 110/106/125 68/65/70
f 69/67/72 104/102/109 102/101/108 1/9/9
f 105/103/110 107/105/112 82/79/85 83/78/84
f 99/95/101 101/99/106 85/83/89 86/82/88
f 84/81/87 103/100/126 105/103/110 83/78/84
f 113/96/102 99/95/101 86/82/88 87/84/90
f 109/110/127 121/113/128 122/87/93 88/86/92
f 111/107/115 116/109/117 117/91/97 89/90/96
f 107/105/112 111/107/115 89/90/96 82/79/85
f 114/66/71 48/43/43 39/59/61
f 39/59/61 7/33/33 108/111/123 115/108/124 114/66/71
f 108/111/119 109/110/118 116/109/117 115/108/116
f 117/91/97 116/109/129 109/110/127 88/86/92
f 118/92/98 117/91/97 88/86/92 95/89/95
f 78/76/81 118/92/98 95/89/95
f 9/25/25 8/3/3 70/114/130 71/115/131
f 71/115/131 72/116/132 18/12/12 9/25/25
f 72/116/132 73/117/133 14/10/10 18/12/12
f 73/117/133 74/118/134 119/26/26 14/10/10
f 120/112/122 119/26/26 74/118/134 112/97/135
f 121/113/121 120/112/120 112/97/103 113/96/102
f 122/87/93 121/113/121 113/96/102 87/84/90
f 123/88/94 122/87/93 87/84/90 94/85/91
f 78/76/81 123/88/94 94/85/91 77/73/136
f 77/73/136 80/72/77 81/77/82 78/76/81
f 92/75/80 91/80/86 81/77/82 80/72/77
f 85/83/89 84/81/137 91/80/86 92/75/80
f 101/99/106 103/100/138 84/81/137 85/83/89
f 101/99/106 100/98/105 102/101/108 103/100/107
f 1/9/9 102/101/108 100/98/105 75/119/139
f 75/119/139 70/114/130 8/3/3 1/9/9
f 124/120/140 125/121/141 127/122/142 126/123/143
s 22
f 125/121/144 124/120/145 135/124/146 136/125/147
s 1
f 126/123/143 127/122/142 128/126/148 129/127/149
f 129/127/149 128/126/148 131/128/150 130/129/151
s off
f 130/129/152 131/128/153 133/130/154 134/131/155
s 22
f 10/21/156 132/132/157 136/125/147 135/124/146
f 132/132/157 10/21/156 134/131/158 133/130/159
s 23
f 44/50/160 137/133/161 143/134/162 142/135/163
f 137/133/161 44/50/160 138/136/164 139/137/165
f 139/137/165 138/136/164 140/138/166 141/139/167
s 1
f 141/139/168 140/138/169 144/140/170 145/141/171
s off
f 142/135/172 143/134/173 149/142/174 148/143/175
s 1
f 145/141/171 144/140/170 147/144/176 146/145/177
f 146/145/177 147/144/176 148/143/178 149/142/179
s 22
f 134/131/158 10/21/156 17/146/180
s 25
f 12/22/181 154/147/182 10/21/183 135/124/184
s off
f 124/120/185 2/24/186 12/22/187 135/124/188
s 1
f 153/148/189 2/24/24 124/120/140 126/123/143
f 127/122/142 11/149/190 128/126/148
f 128/126/148 11/149/190 131/128/150
s 26
f 151/150/191 152/151/192 129/127/193 130/129/194
s 27
f 17/146/195 150/152/196 151/150/197 130/129/198
f 10/21/199 154/147/200 150/152/196 17/146/195
s 1
f 129/127/201 152/151/202 153/148/189 126/123/143
s 22
f 130/129/203 134/131/158 17/146/180
s 1
f 137/133/204 139/137/205 64/62/67 65/61/66
f 139/137/206 141/139/207 69/67/72 64/62/67
s 23
f 142/135/163 51/153/208 44/50/160
s 1
f 45/154/209 149/142/179 67/64/69 68/65/70
f 145/141/171 146/145/177 45/154/209
f 146/145/177 149/142/179 45/154/209
f 149/142/179 143/134/210 66/63/68 67/64/69
f 66/63/68 143/134/210 137/133/204 65/61/66
s 23
f 148/143/211 51/153/208 142/135/163
s 1
f 71/115/131 70/114/130 136/125/212 132/132/213
f 72/116/132 71/115/131 132/132/213 133/130/214
f 73/117/133 72/116/132 133/130/214 131/128/150
f 74/118/134 73/117/133 131/128/150 11/149/190
f 70/114/130 75/119/139 125/121/215 136/125/216
f 141/139/168 145/141/171 106/104/217 104/102/218 69/67/219
f 106/104/217 145/141/171 45/154/209 68/65/70 110/106/125
f 98/94/220 112/97/135 74/118/134 11/149/190 127/122/142
f 75/119/221 100/98/222 98/94/220 127/122/142 125/121/141
s 27
f 151/150/197 150/152/196 16/30/223 13/29/224
s 26
f 13/29/225 4/31/226 152/151/192 151/150/191
s 1
f 153/148/189 152/151/202 4/31/31 15/23/23
f 15/23/23 2/24/24 153/148/189
s 25
f 12/22/181 10/21/227 154/147/182
s 27
f 150/152/196 154/147/200 10/21/228 16/30/223
s 28
f 51/153/229 148/143/230 156/155/231 155/156/232
s 29
f 157/157/233 156/155/234 148/143/235 147/144/236
s 1
f 147/144/237 144/140/170 158/158/238 157/157/239
f 38/53/55 158/158/238 144/140/170 140/138/169
s off
f 140/138/240 138/136/241 46/52/242 38/53/243
s 30
f 159/159/244 46/52/245 138/136/246 44/50/247
s 28
f 44/50/248 51/153/229 155/156/232 159/159/249
f 155/156/232 156/155/231 47/56/250 50/55/251
s 29
f 40/57/252 47/56/253 156/155/234 157/157/233
s 1
f 157/157/239 158/158/238 49/51/53 40/57/59
f 38/53/55 49/51/53 158/158/238
s 30
f 44/50/254 46/52/245 159/159/244
s 28
f 159/159/249 155/156/232 50/55/251 44/50/255
